<svg width="300" height="300" viewBox="0 0 300 300" fill="none" xmlns="http://www.w3.org/2000/svg">
<path d="M83.72 174.44L83 174.08C79.64 173.2 76.08 172.64 72.32 172.4C68.56 172.16 64.72 171.64 60.8 170.84C64.64 171.64 68.4 172.28 72.08 172.76C75.76 173.16 79.4 173.96 83 175.16C81.88 175.88 80.68 176.24 79.4 176.24C77.88 176.08 76.36 175.84 74.84 175.52C73.4 175.2 71.84 174.96 70.16 174.8C70.16 174.32 70.28 173.96 70.52 173.72C68.2 173.72 65.88 173.48 63.56 173C61.32 172.52 59.12 172 56.96 171.44C54.8 170.8 52.68 170.24 50.6 169.76C48.6 169.2 46.72 168.92 44.96 168.92C44.96 169.16 44.92 169.28 44.84 169.28C46.92 169.68 48.88 170.24 50.72 170.96C52.56 171.68 54.64 172.24 56.96 172.64C59.2 173.2 61.36 173.6 63.44 173.84C65.6 174.08 67.72 174.4 69.8 174.8C66.44 174.48 63 174 59.48 173.36C56.04 172.72 52.64 172 49.28 171.2L43.64 169.76C41.64 174.88 39.6 179.92 37.52 184.88C35.52 189.76 33.56 194.72 31.64 199.76C31.48 199.44 31.2 199.24 30.8 199.16C30.48 199.16 30.12 199.16 29.72 199.16C29.4 199.16 29.08 199.04 28.76 198.8C28.44 198.64 28.28 198.24 28.28 197.6C28.28 196.96 28.44 196.04 28.76 194.84C29.08 193.72 29.68 192.2 30.56 190.28C30.4 190.12 30.12 190.04 29.72 190.04C29.4 189.96 29.16 189.92 29 189.92C27.4 193.28 25.84 195.84 24.32 197.6C22.88 199.44 21.72 200.36 20.84 200.36C19.88 200.36 19.4 199.44 19.4 197.6C19.4 196.08 19.68 194.16 20.24 191.84C20.8 189.44 21.48 186.88 22.28 184.16C23.16 181.44 24.12 178.64 25.16 175.76C26.2 172.8 27.2 169.92 28.16 167.12C27.28 166.56 26.32 166.16 25.28 165.92C24.32 165.68 23.24 165.48 22.04 165.32C22.28 165 22.4 164.6 22.4 164.12C22.4 163.64 22.44 163.16 22.52 162.68C22.6 162.2 22.76 161.8 23 161.48C23.24 161.16 23.68 161 24.32 161C24.48 161 24.96 161.08 25.76 161.24V160.16C24.48 159.52 23.48 158.76 22.76 157.88C22.12 157 21.8 156.12 21.8 155.24C21.8 153.32 23.64 152.36 27.32 152.36C28.36 152.36 29.4 152.44 30.44 152.6C31.56 152.68 32.68 152.8 33.8 152.96L39.32 140.36C40.52 137.64 41.8 134.84 43.16 131.96C44.6 129.08 46.28 126.24 48.2 123.44C50.12 120.64 52.28 118 54.68 115.52C57.16 112.96 60 110.68 63.2 108.68L65 107.96C67.24 108.52 69.04 109 70.4 109.4C71.84 109.72 73 109.96 73.88 110.12C74.68 110.44 75.32 110.64 75.8 110.72H75.68L75.8 111.08C75.8 111.16 75.76 111.24 75.68 111.32L77.12 113.84C82.32 122.56 86.72 131.6 90.32 140.96C93.92 150.32 97 159.52 99.56 168.56C100.2 170.56 100.96 172.72 101.84 175.04C102.8 177.28 103.68 179.44 104.48 181.52C105.36 183.52 106.08 185.36 106.64 187.04C107.2 188.64 107.48 189.8 107.48 190.52C107.48 191.08 107.36 191.44 107.12 191.6C106.88 191.68 106.56 191.72 106.16 191.72C104.08 186.52 102.12 181.4 100.28 176.36C98.44 171.4 96.64 166.4 94.88 161.36C96.48 166.4 98.16 171.4 99.92 176.36C101.76 181.4 103.6 186.52 105.44 191.72H104.6C104.12 191.72 103.8 191.96 103.64 192.44C103.8 192.6 104 193.04 104.24 193.76C104.48 194.4 104.72 195.08 104.96 195.8C105.2 196.6 105.4 197.4 105.56 198.2C105.72 199 105.8 199.6 105.8 200C105.8 201.76 105.28 202.64 104.24 202.64C103.68 202.64 103.24 202.52 102.92 202.28C102.6 202.04 102.24 201.72 101.84 201.32L100.64 200.12C100.16 199.64 99.56 199.16 98.84 198.68L87.32 165.56C89 170.76 90.64 175.96 92.24 181.16C93.92 186.36 95.64 191.48 97.4 196.52C96.12 195 94.92 193.16 93.8 191C92.76 188.84 91.76 186.56 90.8 184.16C89.92 181.76 89.08 179.32 88.28 176.84C87.48 174.28 86.68 171.88 85.88 169.64C85.88 169.8 85.88 169.96 85.88 170.12C85.96 170.2 86 170.32 86 170.48C86 171.76 85.6 172.72 84.8 173.36L83.72 174.44ZM83 161.96C83.16 161.96 83.4 161.92 83.72 161.84C84.04 161.68 84.28 161.6 84.44 161.6C81.8 154.96 79.16 148.52 76.52 142.28C73.96 136.04 71.12 130.04 68 124.28L67.28 125L69.08 128.24C71.88 133.36 74.4 138.64 76.64 144.08C78.88 149.52 81 155.12 83 160.88C80.68 154.64 78.16 148.44 75.44 142.28C72.8 136.04 69.96 130.4 66.92 125.36L66.44 125.6C63.72 128.4 61.16 131.76 58.76 135.68C56.44 139.6 54.24 143.6 52.16 147.68L49.04 155.24L51.08 155.72C52.28 156.04 53.44 156.4 54.56 156.8C55.76 157.12 56.8 157.48 57.68 157.88C59.44 158.76 61.76 159.44 64.64 159.92C67.52 160.4 70.32 160.88 73.04 161.36C75.84 161.76 78.24 162.24 80.24 162.8C82.32 163.28 83.36 164 83.36 164.96L68.72 163.28C69.6 163.44 70.68 163.64 71.96 163.88C73.24 164.04 74.52 164.24 75.8 164.48C77.16 164.72 78.48 164.96 79.76 165.2C81.04 165.36 82.12 165.52 83 165.68C83 165.92 82.96 166.16 82.88 166.4C82.88 166.56 82.88 166.72 82.88 166.88C82.88 167.04 82.96 167.16 83.12 167.24C83.36 167.24 83.6 167.28 83.84 167.36C84.16 167.36 84.44 167.44 84.68 167.6C84.92 167.68 85.16 167.92 85.4 168.32L83 161.96ZM56.96 136.28C57.12 136.28 57.16 136.4 57.08 136.64C57.08 136.8 57.12 136.88 57.2 136.88C57.36 136.88 57.84 136.32 58.64 135.2C59.44 134.08 60.36 132.8 61.4 131.36C62.44 129.92 63.44 128.56 64.4 127.28C65.36 126 66.04 125.16 66.44 124.76L65.84 123.92C64.16 125.52 62.6 127.4 61.16 129.56C59.72 131.72 58.32 133.96 56.96 136.28ZM69.08 123.32C71.64 127.64 74 132.16 76.16 136.88C78.24 141.52 80.2 146.16 82.04 150.8C80.52 146.16 78.68 141.52 76.52 136.88C74.28 132.16 71.84 127.64 69.2 123.32H69.08ZM87.44 141.32C89.92 147.72 92.36 154.24 94.76 160.88C92.52 154.4 90.16 148 87.68 141.68C85.36 135.44 82.68 129.16 79.64 122.84C82.52 128.92 85.12 135.08 87.44 141.32ZM69.8 120.68C70.84 120.92 71.56 121.16 71.96 121.4C72.36 121.64 72.64 121.76 72.8 121.76L72.92 121.4C73 121.4 72.84 121.36 72.44 121.28C72.04 121.2 71.72 121.12 71.48 121.04L71.72 120.56L70.28 120.08L69.8 120.68ZM63.92 119.48L64.88 122L64.76 119.48C64.6 119.48 64.4 119.44 64.16 119.36C64 119.28 63.84 119.24 63.68 119.24L63.92 119.48ZM67.04 122.96L66.2 123.56L66.92 124.52L67.64 123.8L67.04 122.96ZM68.72 122.72H68.84L68.24 121.88V122L68.72 122.72ZM179.826 198.2C179.186 198.2 178.386 197.92 177.426 197.36C176.546 196.88 176.106 196.24 176.106 195.44C176.106 194.08 176.266 192.8 176.586 191.6C176.906 190.32 177.146 189.04 177.306 187.76L176.826 188.12L175.386 194.96C174.426 193.6 173.946 192.24 173.946 190.88C173.946 190.56 174.026 190.24 174.186 189.92C172.666 190.64 171.106 191.24 169.506 191.72C167.986 192.2 166.386 192.44 164.706 192.44C160.386 192.44 156.306 191.88 152.466 190.76C148.706 189.64 144.906 188.24 141.066 186.56L140.466 185C136.626 183.4 133.066 181.24 129.786 178.52C126.586 175.8 123.786 172.72 121.386 169.28C119.066 165.76 117.226 162 115.866 158C114.586 154 113.946 149.92 113.946 145.76C113.946 142.16 114.426 138.64 115.386 135.2C116.426 131.76 117.946 128.56 119.946 125.6L119.226 125.24C117.306 128.2 115.746 131.36 114.546 134.72C113.426 138.08 112.866 141.56 112.866 145.16C112.866 148.68 113.346 152.24 114.306 155.84C115.266 159.36 116.626 162.76 118.386 166.04C120.146 169.32 122.226 172.36 124.626 175.16C127.026 177.8 129.666 180.08 132.546 182C129.746 180.24 127.106 178.08 124.626 175.52C122.146 172.8 119.986 169.84 118.146 166.64C116.386 163.36 114.986 159.96 113.946 156.44C112.906 152.84 112.386 149.36 112.386 146C112.386 140.08 113.706 134.64 116.346 129.68C119.066 124.64 122.586 120.32 126.906 116.72C131.226 113.12 136.106 110.32 141.546 108.32C147.066 106.24 152.626 105.2 158.226 105.2C161.826 105.2 165.266 105.68 168.546 106.64C171.906 107.6 175.266 108.64 178.626 109.76C178.226 110 177.986 110.32 177.906 110.72C177.906 111.12 177.866 111.52 177.786 111.92C177.706 112.24 177.546 112.52 177.306 112.76C177.146 113 176.746 113.12 176.106 113.12C175.066 113.12 174.026 112.96 172.986 112.64C172.026 112.32 171.106 111.96 170.226 111.56L169.866 113.12C170.426 113.28 171.146 113.6 172.026 114.08C172.986 114.56 173.906 115.12 174.786 115.76C175.746 116.32 176.546 116.96 177.186 117.68C177.906 118.4 178.266 119.08 178.266 119.72C178.266 120.68 177.866 121.28 177.066 121.52C176.346 121.68 175.626 121.76 174.906 121.76C172.506 121.76 170.106 121.4 167.706 120.68C165.306 119.96 162.906 119.6 160.506 119.6C156.186 119.6 152.026 120.2 148.026 121.4C144.026 122.6 140.506 124.36 137.466 126.68C134.426 128.92 131.986 131.72 130.146 135.08C128.306 138.36 127.386 142.16 127.386 146.48C127.386 150.88 128.466 155.04 130.626 158.96C132.786 162.8 135.546 166.2 138.906 169.16C142.346 172.04 146.186 174.32 150.426 176C154.666 177.68 158.866 178.52 163.026 178.52C163.346 178.52 163.826 178.52 164.466 178.52C165.186 178.44 165.946 178.4 166.746 178.4C167.866 178.4 168.866 178.52 169.746 178.76C170.706 178.92 171.226 179.32 171.306 179.96C170.186 180.12 169.026 180.32 167.826 180.56C166.626 180.72 165.466 180.8 164.346 180.8C161.066 180.8 157.666 180.36 154.146 179.48C157.906 180.6 161.666 181.16 165.426 181.16C166.306 181.16 167.226 181.12 168.186 181.04C169.146 180.96 170.066 180.84 170.946 180.68L172.146 182.12C172.866 181.96 173.466 181.88 173.946 181.88C174.426 181.8 175.266 181.52 176.466 181.04C176.466 178.48 176.586 176 176.826 173.6C177.066 171.12 177.186 168.6 177.186 166.04V164.36C177.186 162.92 177.066 161.4 176.826 159.8C176.666 158.12 176.106 156.8 175.146 155.84L174.426 156.2C175.226 158.04 175.746 160 175.986 162.08C176.226 164.16 176.346 166.24 176.346 168.32C176.346 171.76 176.106 175.08 175.626 178.28C175.866 175.64 175.986 173 175.986 170.36C175.986 169.8 175.906 168.72 175.746 167.12C175.666 165.44 175.506 163.76 175.266 162.08C175.026 160.32 174.706 158.76 174.306 157.4C173.986 156.04 173.626 155.36 173.226 155.36C171.306 155.36 169.346 155.2 167.346 154.88C165.426 154.56 163.506 154.4 161.586 154.4H160.986L157.746 154.52C157.746 154.28 157.706 154 157.626 153.68C157.626 153.36 157.626 153.04 157.626 152.72C157.626 152.08 157.746 151.48 157.986 150.92C158.226 150.36 158.786 150.08 159.666 150.08L161.106 150.2V148.76C159.986 148.44 158.826 147.92 157.626 147.2C156.506 146.48 155.946 145.44 155.946 144.08C155.946 143.12 156.466 142.36 157.506 141.8C158.546 141.24 159.746 140.84 161.106 140.6C162.546 140.28 163.946 140.08 165.306 140C166.666 139.92 167.706 139.88 168.426 139.88C175.706 139.88 181.186 141.76 184.866 145.52C188.626 149.28 190.506 154.8 190.506 162.08C190.506 166.88 190.106 171.68 189.306 176.48C188.506 181.2 188.106 185.96 188.106 190.76C188.106 191.8 187.946 192.76 187.626 193.64C187.386 194.52 186.626 194.96 185.346 194.96L185.946 186.32L184.866 194.6C184.626 194.6 184.386 194.6 184.146 194.6C183.906 194.68 183.666 194.72 183.426 194.72C183.266 194.72 183.146 194.68 183.066 194.6C182.986 194.6 182.866 194.6 182.706 194.6V196.4C182.066 197.6 181.106 198.2 179.826 198.2ZM174.426 188.72C172.986 188.8 171.546 188.96 170.106 189.2C168.746 189.44 167.346 189.56 165.906 189.56C160.226 189.56 154.586 188.64 148.986 186.8C143.386 184.88 138.266 182.24 133.626 178.88C129.066 175.44 125.146 171.32 121.866 166.52C119.546 163.08 117.826 159.36 116.706 155.36C117.826 159.92 119.706 164.04 122.346 167.72C125.786 172.68 129.986 176.84 134.946 180.2C139.906 183.56 145.386 186.08 151.386 187.76C157.386 189.44 163.426 190.28 169.506 190.28H170.226C171.026 190.28 171.786 190.2 172.506 190.04C173.226 189.88 173.866 189.44 174.426 188.72ZM129.306 163.04V163.28C129.306 164.08 129.826 165.04 130.866 166.16C131.906 167.28 133.106 168.4 134.466 169.52C135.826 170.56 137.146 171.56 138.426 172.52C139.786 173.4 140.786 174 141.426 174.32C140.706 173.76 139.746 173.04 138.546 172.16C137.426 171.28 136.266 170.32 135.066 169.28C133.866 168.24 132.706 167.2 131.586 166.16C130.546 165.04 129.786 164 129.306 163.04ZM178.026 181.28C178.186 179.44 178.426 177.68 178.746 176C179.066 174.24 179.226 172.44 179.226 170.6C179.226 169.48 179.186 168.4 179.106 167.36C179.026 166.32 178.866 165.24 178.626 164.12C178.626 167 178.586 169.88 178.506 172.76C178.426 175.64 178.186 178.48 177.786 181.28H178.026ZM188.226 167.12C187.266 169.52 186.826 171.88 186.906 174.2C186.986 176.36 186.866 178.52 186.546 180.68C186.946 178.52 187.266 176.32 187.506 174.08C187.826 171.76 188.066 169.44 188.226 167.12ZM115.986 151.88C116.226 153.08 116.466 154.24 116.706 155.36C116.466 154.24 116.226 153.08 115.986 151.88ZM115.866 150.56C115.946 151.04 115.986 151.48 115.986 151.88C115.906 151.48 115.866 151.04 115.866 150.56ZM273.811 110.96C274.451 110.96 274.811 111.36 274.891 112.16C275.051 112.88 275.131 113.6 275.131 114.32L275.011 115.16C274.931 115.64 274.811 116.28 274.651 117.08C274.491 117.8 274.291 118.6 274.051 119.48C273.891 120.36 273.651 121.16 273.331 121.88C272.211 125.4 271.291 128.88 270.571 132.32C269.931 135.76 269.411 139.24 269.011 142.76C268.611 146.2 268.291 149.68 268.051 153.2C267.811 156.72 267.571 160.28 267.331 163.88C267.651 160.6 267.931 157.16 268.171 153.56C268.491 149.96 268.891 146.36 269.371 142.76C269.851 139.08 270.451 135.52 271.171 132.08C271.971 128.56 273.051 125.28 274.411 122.24C273.211 129.92 272.211 137.56 271.411 145.16C270.691 152.76 270.091 160.44 269.611 168.2L268.171 168.92C268.171 173.8 267.691 178.48 266.731 182.96C265.771 187.36 264.691 191.92 263.491 196.64C263.091 196.64 262.611 196.64 262.051 196.64C261.571 196.72 261.091 196.76 260.611 196.76C260.211 196.76 259.651 196.64 258.931 196.4C258.211 196.16 257.451 195.84 256.651 195.44C255.851 195.12 255.011 194.72 254.131 194.24C253.331 193.84 252.651 193.44 252.091 193.04C248.651 190.8 245.571 188.04 242.851 184.76C240.131 181.4 237.691 177.72 235.531 173.72C233.371 169.72 231.451 165.52 229.771 161.12C228.091 156.64 226.491 152.16 224.971 147.68C223.531 143.2 222.131 138.84 220.771 134.6C219.411 130.28 218.051 126.32 216.691 122.72L215.971 123.32C217.331 127.32 218.651 131.68 219.931 136.4C221.291 141.04 222.691 145.8 224.131 150.68C225.651 155.48 227.331 160.24 229.171 164.96C231.091 169.68 233.291 174.08 235.771 178.16C238.331 182.24 241.291 185.88 244.651 189.08C248.011 192.2 251.931 194.64 256.411 196.4C252.571 195.36 249.131 193.6 246.091 191.12C243.131 188.56 240.411 185.56 237.931 182.12C235.531 178.68 233.371 174.96 231.451 170.96C229.611 166.88 227.931 162.76 226.411 158.6C224.891 154.44 223.531 150.36 222.331 146.36C221.131 142.36 220.011 138.72 218.971 135.44C218.971 138.8 219.131 142.08 219.451 145.28C219.851 148.48 220.051 151.72 220.051 155C220.051 160.52 220.211 166.08 220.531 171.68C220.851 177.2 221.171 182.72 221.491 188.24L218.851 188.72C218.211 188.72 217.731 188.2 217.411 187.16C217.091 186.04 216.851 184.8 216.691 183.44C216.531 182.08 216.411 180.8 216.331 179.6C216.331 178.32 216.331 177.52 216.331 177.2H214.891C214.891 177.84 214.851 179.12 214.771 181.04C214.771 182.88 214.651 184.8 214.411 186.8C214.171 188.8 213.771 190.6 213.211 192.2C212.731 193.8 212.011 194.6 211.051 194.6C210.411 194.6 209.811 193.56 209.251 191.48C208.691 189.32 208.131 186.52 207.571 183.08C207.011 179.56 206.491 175.6 206.011 171.2C205.531 166.72 205.131 162.2 204.811 157.64C204.491 153.08 204.211 148.64 203.971 144.32C203.811 140 203.731 136.2 203.731 132.92C203.731 128.68 204.011 124.48 204.571 120.32C205.211 116.16 206.211 112.04 207.571 107.96L220.771 105.44C221.171 106 221.531 106.52 221.851 107C222.171 107.4 222.531 107.84 222.931 108.32C225.251 111.68 227.251 115.36 228.931 119.36C230.611 123.28 232.131 127.4 233.491 131.72C234.851 135.96 236.131 140.28 237.331 144.68C238.611 149 240.011 153.24 241.531 157.4C243.051 161.48 244.811 165.36 246.811 169.04C248.811 172.72 251.251 176 254.131 178.88C254.451 176.56 254.731 173.48 254.971 169.64C255.291 165.8 255.611 161.68 255.931 157.28C256.331 152.88 256.731 148.48 257.131 144.08C257.531 139.6 258.011 135.56 258.571 131.96C259.211 128.28 259.931 125.32 260.731 123.08C261.611 120.76 262.611 119.6 263.731 119.6L264.451 120.08C262.771 125.04 261.611 130.04 260.971 135.08C260.411 140.12 259.971 145.2 259.651 150.32C259.411 155.44 259.091 160.56 258.691 165.68C258.371 170.72 257.611 175.72 256.411 180.68L257.131 181.04C257.211 180.32 257.291 179.6 257.371 178.88C257.451 178.08 257.571 177.32 257.731 176.6C258.371 171.96 258.811 167.32 259.051 162.68C259.371 157.96 259.691 153.24 260.011 148.52C260.411 143.8 260.931 139.12 261.571 134.48C262.291 129.84 263.371 125.28 264.811 120.8L266.011 121.64C266.491 121.32 266.931 120.6 267.331 119.48C267.731 118.28 268.211 117.08 268.771 115.88C269.331 114.6 270.011 113.48 270.811 112.52C271.611 111.48 272.611 110.96 273.811 110.96ZM261.571 195.68C262.451 192.8 263.251 189.92 263.971 187.04C264.691 184.16 265.251 181.2 265.651 178.16C265.171 181.04 264.531 183.88 263.731 186.68C263.011 189.4 262.291 192.16 261.571 194.96C256.771 193.28 252.851 191.44 249.811 189.44C246.851 187.44 244.331 185.16 242.251 182.6C240.251 180.04 238.451 177.16 236.851 173.96C235.571 171.48 234.171 168.72 232.651 165.68C233.611 167.68 234.451 169.52 235.171 171.2C236.291 173.52 237.371 175.68 238.411 177.68C239.531 179.6 240.691 181.36 241.891 182.96C243.091 184.48 244.571 185.96 246.331 187.4C248.091 188.76 250.171 190.12 252.571 191.48C255.051 192.76 258.051 194.16 261.571 195.68ZM256.051 183.68C255.251 183.12 254.211 182.04 252.931 180.44C251.731 178.84 250.491 177.2 249.211 175.52C248.011 173.76 246.931 172.2 245.971 170.84C245.011 169.48 244.451 168.76 244.291 168.68C245.571 171.64 247.211 174.36 249.211 176.84C251.291 179.24 253.451 181.52 255.691 183.68H256.051Z" fill="#C97878"/>
<path d="M83.72 179.44L83 179.08C79.64 178.2 76.08 177.64 72.32 177.4C68.56 177.16 64.72 176.64 60.8 175.84C64.64 176.64 68.4 177.28 72.08 177.76C75.76 178.16 79.4 178.96 83 180.16C81.88 180.88 80.68 181.24 79.4 181.24C77.88 181.08 76.36 180.84 74.84 180.52C73.4 180.2 71.84 179.96 70.16 179.8C70.16 179.32 70.28 178.96 70.52 178.72C68.2 178.72 65.88 178.48 63.56 178C61.32 177.52 59.12 177 56.96 176.44C54.8 175.8 52.68 175.24 50.6 174.76C48.6 174.2 46.72 173.92 44.96 173.92C44.96 174.16 44.92 174.28 44.84 174.28C46.92 174.68 48.88 175.24 50.72 175.96C52.56 176.68 54.64 177.24 56.96 177.64C59.2 178.2 61.36 178.6 63.44 178.84C65.6 179.08 67.72 179.4 69.8 179.8C66.44 179.48 63 179 59.48 178.36C56.04 177.72 52.64 177 49.28 176.2L43.64 174.76C41.64 179.88 39.6 184.92 37.52 189.88C35.52 194.76 33.56 199.72 31.64 204.76C31.48 204.44 31.2 204.24 30.8 204.16C30.48 204.16 30.12 204.16 29.72 204.16C29.4 204.16 29.08 204.04 28.76 203.8C28.44 203.64 28.28 203.24 28.28 202.6C28.28 201.96 28.44 201.04 28.76 199.84C29.08 198.72 29.68 197.2 30.56 195.28C30.4 195.12 30.12 195.04 29.72 195.04C29.4 194.96 29.16 194.92 29 194.92C27.4 198.28 25.84 200.84 24.32 202.6C22.88 204.44 21.72 205.36 20.84 205.36C19.88 205.36 19.4 204.44 19.4 202.6C19.4 201.08 19.68 199.16 20.24 196.84C20.8 194.44 21.48 191.88 22.28 189.16C23.16 186.44 24.12 183.64 25.16 180.76C26.2 177.8 27.2 174.92 28.16 172.12C27.28 171.56 26.32 171.16 25.28 170.92C24.32 170.68 23.24 170.48 22.04 170.32C22.28 170 22.4 169.6 22.4 169.12C22.4 168.64 22.44 168.16 22.52 167.68C22.6 167.2 22.76 166.8 23 166.48C23.24 166.16 23.68 166 24.32 166C24.48 166 24.96 166.08 25.76 166.24V165.16C24.48 164.52 23.48 163.76 22.76 162.88C22.12 162 21.8 161.12 21.8 160.24C21.8 158.32 23.64 157.36 27.32 157.36C28.36 157.36 29.4 157.44 30.44 157.6C31.56 157.68 32.68 157.8 33.8 157.96L39.32 145.36C40.52 142.64 41.8 139.84 43.16 136.96C44.6 134.08 46.28 131.24 48.2 128.44C50.12 125.64 52.28 123 54.68 120.52C57.16 117.96 60 115.68 63.2 113.68L65 112.96C67.24 113.52 69.04 114 70.4 114.4C71.84 114.72 73 114.96 73.88 115.12C74.68 115.44 75.32 115.64 75.8 115.72H75.68L75.8 116.08C75.8 116.16 75.76 116.24 75.68 116.32L77.12 118.84C82.32 127.56 86.72 136.6 90.32 145.96C93.92 155.32 97 164.52 99.56 173.56C100.2 175.56 100.96 177.72 101.84 180.04C102.8 182.28 103.68 184.44 104.48 186.52C105.36 188.52 106.08 190.36 106.64 192.04C107.2 193.64 107.48 194.8 107.48 195.52C107.48 196.08 107.36 196.44 107.12 196.6C106.88 196.68 106.56 196.72 106.16 196.72C104.08 191.52 102.12 186.4 100.28 181.36C98.44 176.4 96.64 171.4 94.88 166.36C96.48 171.4 98.16 176.4 99.92 181.36C101.76 186.4 103.6 191.52 105.44 196.72H104.6C104.12 196.72 103.8 196.96 103.64 197.44C103.8 197.6 104 198.04 104.24 198.76C104.48 199.4 104.72 200.08 104.96 200.8C105.2 201.6 105.4 202.4 105.56 203.2C105.72 204 105.8 204.6 105.8 205C105.8 206.76 105.28 207.64 104.24 207.64C103.68 207.64 103.24 207.52 102.92 207.28C102.6 207.04 102.24 206.72 101.84 206.32L100.64 205.12C100.16 204.64 99.56 204.16 98.84 203.68L87.32 170.56C89 175.76 90.64 180.96 92.24 186.16C93.92 191.36 95.64 196.48 97.4 201.52C96.12 200 94.92 198.16 93.8 196C92.76 193.84 91.76 191.56 90.8 189.16C89.92 186.76 89.08 184.32 88.28 181.84C87.48 179.28 86.68 176.88 85.88 174.64C85.88 174.8 85.88 174.96 85.88 175.12C85.96 175.2 86 175.32 86 175.48C86 176.76 85.6 177.72 84.8 178.36L83.72 179.44ZM83 166.96C83.16 166.96 83.4 166.92 83.72 166.84C84.04 166.68 84.28 166.6 84.44 166.6C81.8 159.96 79.16 153.52 76.52 147.28C73.96 141.04 71.12 135.04 68 129.28L67.28 130L69.08 133.24C71.88 138.36 74.4 143.64 76.64 149.08C78.88 154.52 81 160.12 83 165.88C80.68 159.64 78.16 153.44 75.44 147.28C72.8 141.04 69.96 135.4 66.92 130.36L66.44 130.6C63.72 133.4 61.16 136.76 58.76 140.68C56.44 144.6 54.24 148.6 52.16 152.68L49.04 160.24L51.08 160.72C52.28 161.04 53.44 161.4 54.56 161.8C55.76 162.12 56.8 162.48 57.68 162.88C59.44 163.76 61.76 164.44 64.64 164.92C67.52 165.4 70.32 165.88 73.04 166.36C75.84 166.76 78.24 167.24 80.24 167.8C82.32 168.28 83.36 169 83.36 169.96L68.72 168.28C69.6 168.44 70.68 168.64 71.96 168.88C73.24 169.04 74.52 169.24 75.8 169.48C77.16 169.72 78.48 169.96 79.76 170.2C81.04 170.36 82.12 170.52 83 170.68C83 170.92 82.96 171.16 82.88 171.4C82.88 171.56 82.88 171.72 82.88 171.88C82.88 172.04 82.96 172.16 83.12 172.24C83.36 172.24 83.6 172.28 83.84 172.36C84.16 172.36 84.44 172.44 84.68 172.6C84.92 172.68 85.16 172.92 85.4 173.32L83 166.96ZM56.96 141.28C57.12 141.28 57.16 141.4 57.08 141.64C57.08 141.8 57.12 141.88 57.2 141.88C57.36 141.88 57.84 141.32 58.64 140.2C59.44 139.08 60.36 137.8 61.4 136.36C62.44 134.92 63.44 133.56 64.4 132.28C65.36 131 66.04 130.16 66.44 129.76L65.84 128.92C64.16 130.52 62.6 132.4 61.16 134.56C59.72 136.72 58.32 138.96 56.96 141.28ZM69.08 128.32C71.64 132.64 74 137.16 76.16 141.88C78.24 146.52 80.2 151.16 82.04 155.8C80.52 151.16 78.68 146.52 76.52 141.88C74.28 137.16 71.84 132.64 69.2 128.32H69.08ZM87.44 146.32C89.92 152.72 92.36 159.24 94.76 165.88C92.52 159.4 90.16 153 87.68 146.68C85.36 140.44 82.68 134.16 79.64 127.84C82.52 133.92 85.12 140.08 87.44 146.32ZM69.8 125.68C70.84 125.92 71.56 126.16 71.96 126.4C72.36 126.64 72.64 126.76 72.8 126.76L72.92 126.4C73 126.4 72.84 126.36 72.44 126.28C72.04 126.2 71.72 126.12 71.48 126.04L71.72 125.56L70.28 125.08L69.8 125.68ZM63.92 124.48L64.88 127L64.76 124.48C64.6 124.48 64.4 124.44 64.16 124.36C64 124.28 63.84 124.24 63.68 124.24L63.92 124.48ZM67.04 127.96L66.2 128.56L66.92 129.52L67.64 128.8L67.04 127.96ZM68.72 127.72H68.84L68.24 126.88V127L68.72 127.72ZM179.826 203.2C179.186 203.2 178.386 202.92 177.426 202.36C176.546 201.88 176.106 201.24 176.106 200.44C176.106 199.08 176.266 197.8 176.586 196.6C176.906 195.32 177.146 194.04 177.306 192.76L176.826 193.12L175.386 199.96C174.426 198.6 173.946 197.24 173.946 195.88C173.946 195.56 174.026 195.24 174.186 194.92C172.666 195.64 171.106 196.24 169.506 196.72C167.986 197.2 166.386 197.44 164.706 197.44C160.386 197.44 156.306 196.88 152.466 195.76C148.706 194.64 144.906 193.24 141.066 191.56L140.466 190C136.626 188.4 133.066 186.24 129.786 183.52C126.586 180.8 123.786 177.72 121.386 174.28C119.066 170.76 117.226 167 115.866 163C114.586 159 113.946 154.92 113.946 150.76C113.946 147.16 114.426 143.64 115.386 140.2C116.426 136.76 117.946 133.56 119.946 130.6L119.226 130.24C117.306 133.2 115.746 136.36 114.546 139.72C113.426 143.08 112.866 146.56 112.866 150.16C112.866 153.68 113.346 157.24 114.306 160.84C115.266 164.36 116.626 167.76 118.386 171.04C120.146 174.32 122.226 177.36 124.626 180.16C127.026 182.8 129.666 185.08 132.546 187C129.746 185.24 127.106 183.08 124.626 180.52C122.146 177.8 119.986 174.84 118.146 171.64C116.386 168.36 114.986 164.96 113.946 161.44C112.906 157.84 112.386 154.36 112.386 151C112.386 145.08 113.706 139.64 116.346 134.68C119.066 129.64 122.586 125.32 126.906 121.72C131.226 118.12 136.106 115.32 141.546 113.32C147.066 111.24 152.626 110.2 158.226 110.2C161.826 110.2 165.266 110.68 168.546 111.64C171.906 112.6 175.266 113.64 178.626 114.76C178.226 115 177.986 115.32 177.906 115.72C177.906 116.12 177.866 116.52 177.786 116.92C177.706 117.24 177.546 117.52 177.306 117.76C177.146 118 176.746 118.12 176.106 118.12C175.066 118.12 174.026 117.96 172.986 117.64C172.026 117.32 171.106 116.96 170.226 116.56L169.866 118.12C170.426 118.28 171.146 118.6 172.026 119.08C172.986 119.56 173.906 120.12 174.786 120.76C175.746 121.32 176.546 121.96 177.186 122.68C177.906 123.4 178.266 124.08 178.266 124.72C178.266 125.68 177.866 126.28 177.066 126.52C176.346 126.68 175.626 126.76 174.906 126.76C172.506 126.76 170.106 126.4 167.706 125.68C165.306 124.96 162.906 124.6 160.506 124.6C156.186 124.6 152.026 125.2 148.026 126.4C144.026 127.6 140.506 129.36 137.466 131.68C134.426 133.92 131.986 136.72 130.146 140.08C128.306 143.36 127.386 147.16 127.386 151.48C127.386 155.88 128.466 160.04 130.626 163.96C132.786 167.8 135.546 171.2 138.906 174.16C142.346 177.04 146.186 179.32 150.426 181C154.666 182.68 158.866 183.52 163.026 183.52C163.346 183.52 163.826 183.52 164.466 183.52C165.186 183.44 165.946 183.4 166.746 183.4C167.866 183.4 168.866 183.52 169.746 183.76C170.706 183.92 171.226 184.32 171.306 184.96C170.186 185.12 169.026 185.32 167.826 185.56C166.626 185.72 165.466 185.8 164.346 185.8C161.066 185.8 157.666 185.36 154.146 184.48C157.906 185.6 161.666 186.16 165.426 186.16C166.306 186.16 167.226 186.12 168.186 186.04C169.146 185.96 170.066 185.84 170.946 185.68L172.146 187.12C172.866 186.96 173.466 186.88 173.946 186.88C174.426 186.8 175.266 186.52 176.466 186.04C176.466 183.48 176.586 181 176.826 178.6C177.066 176.12 177.186 173.6 177.186 171.04V169.36C177.186 167.92 177.066 166.4 176.826 164.8C176.666 163.12 176.106 161.8 175.146 160.84L174.426 161.2C175.226 163.04 175.746 165 175.986 167.08C176.226 169.16 176.346 171.24 176.346 173.32C176.346 176.76 176.106 180.08 175.626 183.28C175.866 180.64 175.986 178 175.986 175.36C175.986 174.8 175.906 173.72 175.746 172.12C175.666 170.44 175.506 168.76 175.266 167.08C175.026 165.32 174.706 163.76 174.306 162.4C173.986 161.04 173.626 160.36 173.226 160.36C171.306 160.36 169.346 160.2 167.346 159.88C165.426 159.56 163.506 159.4 161.586 159.4H160.986L157.746 159.52C157.746 159.28 157.706 159 157.626 158.68C157.626 158.36 157.626 158.04 157.626 157.72C157.626 157.08 157.746 156.48 157.986 155.92C158.226 155.36 158.786 155.08 159.666 155.08L161.106 155.2V153.76C159.986 153.44 158.826 152.92 157.626 152.2C156.506 151.48 155.946 150.44 155.946 149.08C155.946 148.12 156.466 147.36 157.506 146.8C158.546 146.24 159.746 145.84 161.106 145.6C162.546 145.28 163.946 145.08 165.306 145C166.666 144.92 167.706 144.88 168.426 144.88C175.706 144.88 181.186 146.76 184.866 150.52C188.626 154.28 190.506 159.8 190.506 167.08C190.506 171.88 190.106 176.68 189.306 181.48C188.506 186.2 188.106 190.96 188.106 195.76C188.106 196.8 187.946 197.76 187.626 198.64C187.386 199.52 186.626 199.96 185.346 199.96L185.946 191.32L184.866 199.6C184.626 199.6 184.386 199.6 184.146 199.6C183.906 199.68 183.666 199.72 183.426 199.72C183.266 199.72 183.146 199.68 183.066 199.6C182.986 199.6 182.866 199.6 182.706 199.6V201.4C182.066 202.6 181.106 203.2 179.826 203.2ZM174.426 193.72C172.986 193.8 171.546 193.96 170.106 194.2C168.746 194.44 167.346 194.56 165.906 194.56C160.226 194.56 154.586 193.64 148.986 191.8C143.386 189.88 138.266 187.24 133.626 183.88C129.066 180.44 125.146 176.32 121.866 171.52C119.546 168.08 117.826 164.36 116.706 160.36C117.826 164.92 119.706 169.04 122.346 172.72C125.786 177.68 129.986 181.84 134.946 185.2C139.906 188.56 145.386 191.08 151.386 192.76C157.386 194.44 163.426 195.28 169.506 195.28H170.226C171.026 195.28 171.786 195.2 172.506 195.04C173.226 194.88 173.866 194.44 174.426 193.72ZM129.306 168.04V168.28C129.306 169.08 129.826 170.04 130.866 171.16C131.906 172.28 133.106 173.4 134.466 174.52C135.826 175.56 137.146 176.56 138.426 177.52C139.786 178.4 140.786 179 141.426 179.32C140.706 178.76 139.746 178.04 138.546 177.16C137.426 176.28 136.266 175.32 135.066 174.28C133.866 173.24 132.706 172.2 131.586 171.16C130.546 170.04 129.786 169 129.306 168.04ZM178.026 186.28C178.186 184.44 178.426 182.68 178.746 181C179.066 179.24 179.226 177.44 179.226 175.6C179.226 174.48 179.186 173.4 179.106 172.36C179.026 171.32 178.866 170.24 178.626 169.12C178.626 172 178.586 174.88 178.506 177.76C178.426 180.64 178.186 183.48 177.786 186.28H178.026ZM188.226 172.12C187.266 174.52 186.826 176.88 186.906 179.2C186.986 181.36 186.866 183.52 186.546 185.68C186.946 183.52 187.266 181.32 187.506 179.08C187.826 176.76 188.066 174.44 188.226 172.12ZM115.986 156.88C116.226 158.08 116.466 159.24 116.706 160.36C116.466 159.24 116.226 158.08 115.986 156.88ZM115.866 155.56C115.946 156.04 115.986 156.48 115.986 156.88C115.906 156.48 115.866 156.04 115.866 155.56ZM273.811 115.96C274.451 115.96 274.811 116.36 274.891 117.16C275.051 117.88 275.131 118.6 275.131 119.32L275.011 120.16C274.931 120.64 274.811 121.28 274.651 122.08C274.491 122.8 274.291 123.6 274.051 124.48C273.891 125.36 273.651 126.16 273.331 126.88C272.211 130.4 271.291 133.88 270.571 137.32C269.931 140.76 269.411 144.24 269.011 147.76C268.611 151.2 268.291 154.68 268.051 158.2C267.811 161.72 267.571 165.28 267.331 168.88C267.651 165.6 267.931 162.16 268.171 158.56C268.491 154.96 268.891 151.36 269.371 147.76C269.851 144.08 270.451 140.52 271.171 137.08C271.971 133.56 273.051 130.28 274.411 127.24C273.211 134.92 272.211 142.56 271.411 150.16C270.691 157.76 270.091 165.44 269.611 173.2L268.171 173.92C268.171 178.8 267.691 183.48 266.731 187.96C265.771 192.36 264.691 196.92 263.491 201.64C263.091 201.64 262.611 201.64 262.051 201.64C261.571 201.72 261.091 201.76 260.611 201.76C260.211 201.76 259.651 201.64 258.931 201.4C258.211 201.16 257.451 200.84 256.651 200.44C255.851 200.12 255.011 199.72 254.131 199.24C253.331 198.84 252.651 198.44 252.091 198.04C248.651 195.8 245.571 193.04 242.851 189.76C240.131 186.4 237.691 182.72 235.531 178.72C233.371 174.72 231.451 170.52 229.771 166.12C228.091 161.64 226.491 157.16 224.971 152.68C223.531 148.2 222.131 143.84 220.771 139.6C219.411 135.28 218.051 131.32 216.691 127.72L215.971 128.32C217.331 132.32 218.651 136.68 219.931 141.4C221.291 146.04 222.691 150.8 224.131 155.68C225.651 160.48 227.331 165.24 229.171 169.96C231.091 174.68 233.291 179.08 235.771 183.16C238.331 187.24 241.291 190.88 244.651 194.08C248.011 197.2 251.931 199.64 256.411 201.4C252.571 200.36 249.131 198.6 246.091 196.12C243.131 193.56 240.411 190.56 237.931 187.12C235.531 183.68 233.371 179.96 231.451 175.96C229.611 171.88 227.931 167.76 226.411 163.6C224.891 159.44 223.531 155.36 222.331 151.36C221.131 147.36 220.011 143.72 218.971 140.44C218.971 143.8 219.131 147.08 219.451 150.28C219.851 153.48 220.051 156.72 220.051 160C220.051 165.52 220.211 171.08 220.531 176.68C220.851 182.2 221.171 187.72 221.491 193.24L218.851 193.72C218.211 193.72 217.731 193.2 217.411 192.16C217.091 191.04 216.851 189.8 216.691 188.44C216.531 187.08 216.411 185.8 216.331 184.6C216.331 183.32 216.331 182.52 216.331 182.2H214.891C214.891 182.84 214.851 184.12 214.771 186.04C214.771 187.88 214.651 189.8 214.411 191.8C214.171 193.8 213.771 195.6 213.211 197.2C212.731 198.8 212.011 199.6 211.051 199.6C210.411 199.6 209.811 198.56 209.251 196.48C208.691 194.32 208.131 191.52 207.571 188.08C207.011 184.56 206.491 180.6 206.011 176.2C205.531 171.72 205.131 167.2 204.811 162.64C204.491 158.08 204.211 153.64 203.971 149.32C203.811 145 203.731 141.2 203.731 137.92C203.731 133.68 204.011 129.48 204.571 125.32C205.211 121.16 206.211 117.04 207.571 112.96L220.771 110.44C221.171 111 221.531 111.52 221.851 112C222.171 112.4 222.531 112.84 222.931 113.32C225.251 116.68 227.251 120.36 228.931 124.36C230.611 128.28 232.131 132.4 233.491 136.72C234.851 140.96 236.131 145.28 237.331 149.68C238.611 154 240.011 158.24 241.531 162.4C243.051 166.48 244.811 170.36 246.811 174.04C248.811 177.72 251.251 181 254.131 183.88C254.451 181.56 254.731 178.48 254.971 174.64C255.291 170.8 255.611 166.68 255.931 162.28C256.331 157.88 256.731 153.48 257.131 149.08C257.531 144.6 258.011 140.56 258.571 136.96C259.211 133.28 259.931 130.32 260.731 128.08C261.611 125.76 262.611 124.6 263.731 124.6L264.451 125.08C262.771 130.04 261.611 135.04 260.971 140.08C260.411 145.12 259.971 150.2 259.651 155.32C259.411 160.44 259.091 165.56 258.691 170.68C258.371 175.72 257.611 180.72 256.411 185.68L257.131 186.04C257.211 185.32 257.291 184.6 257.371 183.88C257.451 183.08 257.571 182.32 257.731 181.6C258.371 176.96 258.811 172.32 259.051 167.68C259.371 162.96 259.691 158.24 260.011 153.52C260.411 148.8 260.931 144.12 261.571 139.48C262.291 134.84 263.371 130.28 264.811 125.8L266.011 126.64C266.491 126.32 266.931 125.6 267.331 124.48C267.731 123.28 268.211 122.08 268.771 120.88C269.331 119.6 270.011 118.48 270.811 117.52C271.611 116.48 272.611 115.96 273.811 115.96ZM261.571 200.68C262.451 197.8 263.251 194.92 263.971 192.04C264.691 189.16 265.251 186.2 265.651 183.16C265.171 186.04 264.531 188.88 263.731 191.68C263.011 194.4 262.291 197.16 261.571 199.96C256.771 198.28 252.851 196.44 249.811 194.44C246.851 192.44 244.331 190.16 242.251 187.6C240.251 185.04 238.451 182.16 236.851 178.96C235.571 176.48 234.171 173.72 232.651 170.68C233.611 172.68 234.451 174.52 235.171 176.2C236.291 178.52 237.371 180.68 238.411 182.68C239.531 184.6 240.691 186.36 241.891 187.96C243.091 189.48 244.571 190.96 246.331 192.4C248.091 193.76 250.171 195.12 252.571 196.48C255.051 197.76 258.051 199.16 261.571 200.68ZM256.051 188.68C255.251 188.12 254.211 187.04 252.931 185.44C251.731 183.84 250.491 182.2 249.211 180.52C248.011 178.76 246.931 177.2 245.971 175.84C245.011 174.48 244.451 173.76 244.291 173.68C245.571 176.64 247.211 179.36 249.211 181.84C251.291 184.24 253.451 186.52 255.691 188.68H256.051Z" fill="black"/>
</svg>
